<?xml version="1.0" encoding="iso-8859-1"?>
<!-- Generator: Adobe Illustrator 19.0.0, SVG Export Plug-In . SVG Version: 6.00 Build 0)  -->
<svg version="1.1" id="Layer_1" xmlns="http://www.w3.org/2000/svg" xmlns:xlink="http://www.w3.org/1999/xlink" x="0px" y="0px"
	 viewBox="0 0 512.011 512.011" style="enable-background:new 0 0 512.011 512.011;" xml:space="preserve">
<path style="fill:#B88C1D;" d="M342.579,430.983c0-36.118-40.175-65.4-76.295-65.4c-36.119,0-85.294,44.092-85.294,80.21
	c0,36.119,49.174,50.589,85.294,50.589C302.406,496.384,342.579,467.103,342.579,430.983z"/>
<g>
	<circle style="fill:#F9BE00;" cx="256.007" cy="193.684" r="193.684"/>
	<path style="fill:#F9BE00;" d="M80.353,476.551c0,16.299,2.658,35.46,83.566,35.46h194.282c48.97,0,73.452-14.904,73.452-35.46
		v-14.522c0-17.684-14.337-32.019-32.02-32.019h-32.021c-6.232,0-11.284-5.054-11.284-11.288c0-6.232-7.001-22.698-27.856-22.698
		c-31.919,0-45.54,43.64-120.624,43.64H117.24C96.866,439.664,80.353,456.179,80.353,476.551z"/>
</g>
<circle style="opacity:0.15;enable-background:new    ;" cx="285.584" cy="459.867" r="19.295"/>
<circle style="opacity:0.15;enable-background:new    ;" cx="348.727" cy="476.355" r="13.55"/>
<circle style="opacity:0.15;enable-background:new    ;" cx="155.309" cy="472.889" r="13.55"/>
<g>
	<circle style="fill:#FFFFFF;" cx="220.674" cy="476.355" r="13.55"/>
	<circle style="fill:#FFFFFF;" cx="398.059" cy="459.345" r="13.55"/>
</g>
<path style="opacity:0.2;enable-background:new    ;" d="M379.929,162.235l68.862,50.031c0.582-6.114,0.891-12.31,0.891-18.577
	c0-0.464-0.014-0.924-0.018-1.388l-58.521-42.519l22.362-68.821c-3.884-5.418-8.045-10.621-12.455-15.602l-26.333,81.045
	l-41.595,14.002l-68.787-49.978V66.074l68.881-50.044c-6.08-2.645-12.317-4.992-18.703-7.013l-58.512,42.511L197.489,9.015
	c-6.384,2.021-12.622,4.368-18.702,7.013l68.879,50.045v44.356l-68.786,49.978l-41.595-14.002L110.953,65.36
	c-4.409,4.98-8.57,10.184-12.455,15.602l22.362,68.821l-58.522,42.519c-0.003,0.463-0.018,0.923-0.018,1.388
	c0,6.268,0.309,12.462,0.891,18.577l68.862-50.031l41.597,14.003l26.297,80.935l-25.684,34.844H89.117
	c3.397,5.752,7.079,11.315,11.033,16.666h72.289l22.356,68.807c6.279,2.09,12.702,3.863,19.248,5.309l-26.302-80.951l25.686-34.846
	h85.149l25.685,34.841l-26.304,80.956c6.547-1.445,12.97-3.219,19.248-5.309l22.357-68.807h72.289
	c3.954-5.351,7.636-10.914,11.033-16.666h-85.164l-25.687-34.844l26.297-80.935L379.929,162.235z M296.732,250.335h-81.461
	l-25.174-77.476l65.904-47.883l65.905,47.883L296.732,250.335z"/>
<circle style="fill:#FFFFFF;" cx="365.96" cy="125.241" r="44.402"/>
<g>
</g>
<g>
</g>
<g>
</g>
<g>
</g>
<g>
</g>
<g>
</g>
<g>
</g>
<g>
</g>
<g>
</g>
<g>
</g>
<g>
</g>
<g>
</g>
<g>
</g>
<g>
</g>
<g>
</g>
</svg>
